<?xml version="1.0"?>
<svg xmlns="http://www.w3.org/2000/svg" xmlns:xlink="http://www.w3.org/1999/xlink" xmlns:svgjs="http://svgjs.com/svgjs" version="1.1" width="512" height="512" x="0" y="0" viewBox="0 0 480 480" style="enable-background:new 0 0 512 512" xml:space="preserve" class=""><g>
<g xmlns="http://www.w3.org/2000/svg">
	<g>
		<path d="M0,320v16c79.4,0,144,64.6,144,144h16C160,391.776,88.224,320,0,320z" fill="#347a7a" data-original="#000000" style="" class=""/>
	</g>
</g>
<g xmlns="http://www.w3.org/2000/svg">
	<g>
		<path d="M0,408v16c30.88,0,56,25.12,56,56h16C72,440.304,39.696,408,0,408z" fill="#347a7a" data-original="#000000" style="" class=""/>
	</g>
</g>
<g xmlns="http://www.w3.org/2000/svg">
	<g>
		<path d="M193.848,430.536l-15.504,3.936c1.248,4.92,2.312,9.968,3.152,15l15.776-2.632    C196.36,441.376,195.208,435.888,193.848,430.536z" fill="#347a7a" data-original="#000000" style="" class=""/>
	</g>
</g>
<g xmlns="http://www.w3.org/2000/svg">
	<g>
		<path d="M146.416,343.68l-11.72,10.896c3.496,3.752,6.848,7.672,9.976,11.648l12.576-9.888    C153.848,352.016,150.208,347.76,146.416,343.68z" fill="#347a7a" data-original="#000000" style="" class=""/>
	</g>
</g>
<g xmlns="http://www.w3.org/2000/svg">
	<g>
		<path d="M63.208,290.176l-5.04,15.184c4.816,1.6,9.624,3.424,14.312,5.432l6.296-14.712    C73.68,293.896,68.44,291.912,63.208,290.176z" fill="#347a7a" data-original="#000000" style="" class=""/>
	</g>
</g>
<g xmlns="http://www.w3.org/2000/svg">
	<g>
		<path d="M93.808,303.272l-7.504,14.136c4.472,2.384,8.92,4.984,13.208,7.744l8.656-13.456    C103.504,308.696,98.672,305.864,93.808,303.272z" fill="#347a7a" data-original="#000000" style="" class=""/>
	</g>
</g>
<g xmlns="http://www.w3.org/2000/svg">
	<g>
		<path d="M30.864,282.36l-2.456,15.816c5.056,0.784,10.112,1.784,15.04,2.968l3.752-15.552    C41.856,284.304,36.36,283.216,30.864,282.36z" fill="#347a7a" data-original="#000000" style="" class=""/>
	</g>
</g>
<g xmlns="http://www.w3.org/2000/svg">
	<g>
		<path d="M167.008,369.832l-13.352,8.824c2.816,4.256,5.472,8.672,7.904,13.128l14.04-7.672    C172.952,379.272,170.064,374.464,167.008,369.832z" fill="#347a7a" data-original="#000000" style="" class=""/>
	</g>
</g>
<g xmlns="http://www.w3.org/2000/svg">
	<g>
		<path d="M0,280v16c4.432,0,8.832,0.16,13.184,0.464l1.128-15.96C9.584,280.168,4.816,280,0,280z" fill="#347a7a" data-original="#000000" style="" class=""/>
	</g>
</g>
<g xmlns="http://www.w3.org/2000/svg">
	<g>
		<path d="M121.792,321.304l-9.752,12.68c4.048,3.112,8.008,6.416,11.76,9.832l10.768-11.832    C130.496,328.28,126.192,324.68,121.792,321.304z" fill="#347a7a" data-original="#000000" style="" class=""/>
	</g>
</g>
<g xmlns="http://www.w3.org/2000/svg">
	<g>
		<path d="M199.32,463.368l-15.944,1.312c0.416,5.04,0.624,10.2,0.624,15.32h16C200,474.44,199.768,468.84,199.32,463.368z" fill="#347a7a" data-original="#000000" style="" class=""/>
	</g>
</g>
<g xmlns="http://www.w3.org/2000/svg">
	<g>
		<path d="M182.976,399.064l-14.632,6.472c2.048,4.648,3.936,9.448,5.608,14.272l15.12-5.232    C187.256,409.328,185.208,404.112,182.976,399.064z" fill="#347a7a" data-original="#000000" style="" class=""/>
	</g>
</g>
<g xmlns="http://www.w3.org/2000/svg">
	<g>
		<path d="M344,416h-66.68c-6.736-24.768-16.592-48.536-29.352-70.832L295.128,298c3.128-3.128,3.128-8.184,0-11.312    L193.304,184.872c-3.128-3.128-8.184-3.128-11.312,0l-47.168,47.16c-22.288-12.76-46.064-22.616-70.832-29.352V136    c0-4.416-3.584-8-8-8H0v16h48v64.864c0,3.672,2.496,6.872,6.056,7.76c27.44,6.856,53.664,17.728,77.936,32.296    c3.144,1.88,7.176,1.392,9.776-1.2l45.88-45.872l90.512,90.504l-45.872,45.88c-2.6,2.6-3.096,6.624-1.2,9.776    c14.568,24.272,25.44,50.496,32.296,77.936c0.88,3.56,4.08,6.056,7.752,6.056H336v48h16v-56C352,419.584,348.416,416,344,416z" fill="#347a7a" data-original="#000000" style="" class=""/>
	</g>
</g>
<g xmlns="http://www.w3.org/2000/svg">
	<g>
		<path d="M472,88.008h-21.544c-1.128-3.2-2.416-6.32-3.848-9.344l15.224-15.224c3.128-3.128,3.128-8.184,0-11.312l-33.944-33.944    c-3.128-3.128-8.184-3.128-11.312,0l-15.224,15.224c-3.032-1.448-6.152-2.736-9.352-3.864V8c0-4.416-3.584-8-8-8h-48    c-4.416,0-8,3.584-8,8v21.544c-3.2,1.128-6.32,2.416-9.344,3.848l-15.224-15.224c-3.128-3.128-8.184-3.128-11.312,0    l-33.944,33.944c-3.128,3.128-3.128,8.184,0,11.312L273.4,78.648c-1.44,3.032-2.728,6.152-3.856,9.352H248c-4.416,0-8,3.584-8,8    v48c0,4.416,3.584,8,8,8h21.544c1.128,3.2,2.416,6.32,3.848,9.344l-15.224,15.224c-3.128,3.128-3.128,8.184,0,11.312    l33.944,33.944c3.128,3.128,8.184,3.128,11.312,0l15.224-15.224c3.024,1.44,6.152,2.728,9.344,3.848V232c0,4.416,3.584,8,8,8h48    c4.416,0,8-3.584,8-8v-21.544c3.2-1.128,6.32-2.416,9.344-3.848l15.224,15.224c3.128,3.128,8.184,3.128,11.312,0l33.944-33.944    c3.128-3.128,3.128-8.184,0-11.312l-15.224-15.224c1.44-3.024,2.728-6.152,3.848-9.344H472c4.416,0,8-3.584,8-8v-48    C480,91.592,476.416,88.008,472,88.008z M464,136h-19.4c-3.576,0-6.72,2.376-7.696,5.816c-1.72,6.064-4.096,11.832-7.072,17.16    c-1.744,3.128-1.2,7.024,1.328,9.56l13.696,13.696l-22.632,22.632l-13.696-13.696c-2.528-2.52-6.432-3.08-9.56-1.328    c-5.32,2.976-11.096,5.352-17.16,7.072c-3.432,0.968-5.808,4.112-5.808,7.688V224h-32v-19.4c0-3.576-2.376-6.72-5.816-7.696    c-6.064-1.72-11.832-4.096-17.16-7.072c-3.136-1.752-7.024-1.192-9.56,1.328l-13.696,13.696l-22.632-22.632l13.696-13.696    c2.528-2.528,3.072-6.432,1.328-9.56c-2.976-5.32-5.352-11.096-7.072-17.16c-0.968-3.432-4.112-5.808-7.688-5.808H256v-32h19.4    c3.576,0,6.72-2.376,7.696-5.816c1.72-6.064,4.096-11.832,7.072-17.16c1.744-3.128,1.2-7.024-1.328-9.56l-13.696-13.696    l22.632-22.632l13.696,13.696c2.528,2.528,6.424,3.08,9.56,1.328c5.32-2.976,11.096-5.352,17.16-7.072    C341.624,42.12,344,38.976,344,35.4V16h32v19.4c0,3.576,2.376,6.72,5.816,7.696c6.064,1.72,11.832,4.096,17.16,7.072    c3.128,1.752,7.024,1.2,9.56-1.328l13.696-13.696l22.632,22.632l-13.696,13.696c-2.528,2.528-3.072,6.432-1.328,9.56    c2.976,5.32,5.352,11.096,7.072,17.16c0.968,3.432,4.112,5.808,7.688,5.808H464V136z" fill="#347a7a" data-original="#000000" style="" class=""/>
	</g>
</g>
<g xmlns="http://www.w3.org/2000/svg">
	<g>
		<path d="M360,64c-30.88,0-56,25.12-56,56s25.12,56,56,56s56-25.12,56-56S390.88,64,360,64z M360,160c-22.056,0-40-17.944-40-40    c0-22.056,17.944-40,40-40c22.056,0,40,17.944,40,40C400,142.056,382.056,160,360,160z" fill="#347a7a" data-original="#000000" style="" class=""/>
	</g>
</g>
<g xmlns="http://www.w3.org/2000/svg">
	<g>
		<polygon points="480,312 416,312 416,248 400,248 400,300.688 365.656,266.344 354.344,277.656 388.688,312 304,312 304,328     400,328 400,480 416,480 416,339.312 450.344,373.656 461.656,362.344 427.312,328 480,328   " fill="#347a7a" data-original="#000000" style="" class=""/>
	</g>
</g>
<g xmlns="http://www.w3.org/2000/svg">
	<g>
		<polygon points="232,64 168,64 168,0 152,0 152,52.688 117.656,18.344 106.344,29.656 140.688,64 0,64 0,80 152,80 152,176     168,176 168,91.312 202.344,125.656 213.656,114.344 179.312,80 232,80   " fill="#347a7a" data-original="#000000" style="" class=""/>
	</g>
</g>
<g xmlns="http://www.w3.org/2000/svg">
</g>
<g xmlns="http://www.w3.org/2000/svg">
</g>
<g xmlns="http://www.w3.org/2000/svg">
</g>
<g xmlns="http://www.w3.org/2000/svg">
</g>
<g xmlns="http://www.w3.org/2000/svg">
</g>
<g xmlns="http://www.w3.org/2000/svg">
</g>
<g xmlns="http://www.w3.org/2000/svg">
</g>
<g xmlns="http://www.w3.org/2000/svg">
</g>
<g xmlns="http://www.w3.org/2000/svg">
</g>
<g xmlns="http://www.w3.org/2000/svg">
</g>
<g xmlns="http://www.w3.org/2000/svg">
</g>
<g xmlns="http://www.w3.org/2000/svg">
</g>
<g xmlns="http://www.w3.org/2000/svg">
</g>
<g xmlns="http://www.w3.org/2000/svg">
</g>
<g xmlns="http://www.w3.org/2000/svg">
</g>
</g></svg>
