<svg width="548" height="470" viewBox="0 0 548 470" fill="none" xmlns="http://www.w3.org/2000/svg">
<circle cx="313" cy="235" r="235" fill="#DCA4EF" fill-opacity="0.5"/>
<circle cx="313" cy="235" r="235" fill="url(#paint0_linear)"/>
<path d="M548 235C548 364.787 442.787 470 313 470C183.213 470 78 364.787 78 235C78 105.213 183.213 0 313 0C442.787 0 548 105.213 548 235Z" fill="white" fill-opacity="0.1"/>
<path d="M328.224 280.485V208.005C328.224 172.754 304.604 142.92 272.36 133.487C271.189 125.358 267.997 117.628 263.076 111.054C268.212 94.9919 264.057 77.4489 251.944 65.3362C249.883 63.2753 247.627 61.417 245.217 59.7913C234.463 33.5001 208.558 16 180 16C151.441 16 125.537 33.5001 114.782 59.7913C112.371 61.417 110.116 63.2753 108.056 65.3355C95.9428 77.4489 91.788 94.9912 96.9237 111.053C92.0032 117.627 88.811 125.358 87.6403 133.487C55.3971 142.919 31.7763 172.753 31.7763 208.004V248.007C31.7763 259.155 36.1695 269.29 43.3048 276.795C18.6497 281.674 0 303.458 0 329.523V368.969C0 372.852 3.14789 376 7.03125 376H218.956C222.839 376 225.987 372.852 225.987 368.969C225.987 365.085 222.839 361.938 218.956 361.938H155.255V329.523C155.255 307.636 173.062 289.83 194.948 289.83H224.906C227.566 301.564 238.07 310.353 250.597 310.353C263.123 310.353 273.627 301.564 276.287 289.83H306.245C328.132 289.83 345.938 307.636 345.938 329.523V361.938H282.234C278.351 361.938 275.203 365.085 275.203 368.969C275.203 372.852 278.351 376 282.234 376H352.969C356.852 376 360 372.852 360 368.969V329.523C360 307.711 346.934 288.905 328.224 280.485V280.485ZM110.147 117.087C111.976 115.051 112.458 112.138 111.381 109.622C106.336 97.8262 108.934 84.3459 118 75.2798C119.831 73.4488 121.884 71.8492 124.102 70.5259C125.482 69.7019 126.539 68.4299 127.095 66.9217C135.231 44.8752 156.491 30.0625 180 30.0625C203.509 30.0625 224.769 44.8752 232.904 66.9217C233.461 68.4306 234.518 69.7026 235.899 70.5259C238.115 71.8478 240.168 73.4474 242 75.2791C251.066 84.3452 253.664 97.8255 248.619 109.622C247.542 112.138 248.024 115.051 249.853 117.086C253.376 121.007 255.938 125.668 257.398 130.678C255.156 130.483 252.888 130.377 250.596 130.377C239.242 130.377 228.449 132.828 218.719 137.227C222.952 130.329 225.399 122.221 225.399 113.55V92.0289C225.399 88.1455 222.251 84.9977 218.368 84.9977H194.943C185.027 84.9977 176.96 76.9307 176.96 67.0152C176.96 63.1319 173.812 59.984 169.928 59.984C166.045 59.984 162.897 63.1319 162.897 67.0152C162.897 71.639 163.889 76.0328 165.659 80.0062C162.802 83.1414 158.727 84.9977 154.38 84.9977H141.632C137.749 84.9977 134.601 88.1455 134.601 92.0289V113.55C134.601 122.22 137.047 130.329 141.281 137.227C131.55 132.828 120.758 130.377 109.403 130.377C107.111 130.377 104.844 130.483 102.602 130.678C104.062 125.669 106.624 121.007 110.147 117.087V117.087ZM154.38 99.0609C161.812 99.0609 168.834 96.2406 174.158 91.3771C179.758 96.1619 187.016 99.0609 194.942 99.0609H211.336V113.551C211.336 130.83 197.279 144.888 179.999 144.888C162.72 144.888 148.662 130.83 148.662 113.551V99.0609H154.38ZM180 158.951C184.077 158.951 188.026 158.402 191.788 157.389C187.047 162.89 183.064 169.061 180 175.739C176.936 169.061 172.953 162.891 168.212 157.389C171.974 158.402 175.923 158.951 180 158.951ZM45.8388 208.005C45.8388 172.955 74.3541 144.44 109.404 144.44C144.454 144.44 172.969 172.955 172.969 208.005V248.007C172.969 263.315 160.516 275.768 145.208 275.768H135.75V265.657C147.425 257.378 155.066 243.767 155.066 228.398V206.729C155.066 202.846 151.918 199.698 148.035 199.698H124.448C114.438 199.698 106.294 191.553 106.294 181.544C106.294 177.66 103.146 174.513 99.263 174.513C95.3796 174.513 92.2317 177.66 92.2317 181.544C92.2317 186.203 93.2337 190.63 95.0217 194.633C92.1361 197.814 88.0102 199.698 83.6086 199.698H70.773C66.8897 199.698 63.7418 202.846 63.7418 206.73V228.399C63.7418 243.768 71.3827 257.379 83.0573 265.659V275.77H73.5996C58.2926 275.77 45.8395 263.316 45.8395 248.009V208.005H45.8388ZM77.8036 213.76H83.6079C91.0934 213.76 98.164 210.913 103.52 206.006C109.155 210.834 116.464 213.76 124.448 213.76H141.003V228.397C141.003 245.821 126.828 259.997 109.403 259.997C91.9793 259.997 77.8036 245.821 77.8036 228.397V213.76ZM97.1191 272.367C101.031 273.461 105.147 274.06 109.403 274.06C113.659 274.06 117.776 273.462 121.688 272.367V284.006C121.688 290.78 116.177 296.29 109.403 296.29C102.63 296.29 97.1191 290.78 97.1191 284.006V272.367ZM141.192 329.523V361.938H14.0625V329.523C14.0625 307.636 31.8691 289.83 53.756 289.83H83.7141C86.3733 301.564 96.878 310.353 109.404 310.353C121.93 310.353 132.435 301.564 135.094 289.83H158.738C147.964 299.667 141.192 313.818 141.192 329.523V329.523ZM218.996 213.76H235.551C243.535 213.76 250.845 210.833 256.48 206.006C261.836 210.913 268.907 213.76 276.391 213.76H282.196V228.397C282.196 245.821 268.02 259.997 250.596 259.997C233.172 259.997 218.996 245.821 218.996 228.397V213.76ZM250.597 296.29C243.823 296.29 238.312 290.78 238.312 284.006V272.367C242.224 273.461 246.341 274.06 250.597 274.06C254.853 274.06 258.969 273.462 262.881 272.367V284.006C262.881 290.78 257.37 296.29 250.597 296.29ZM276.943 275.767V265.656C288.618 257.377 296.259 243.767 296.259 228.396V206.728C296.259 202.844 293.111 199.696 289.228 199.696H276.391C271.99 199.696 267.864 197.812 264.978 194.631C266.766 190.628 267.768 186.201 267.768 181.542C267.768 177.658 264.62 174.51 260.737 174.51C256.854 174.51 253.706 177.658 253.706 181.542C253.706 191.552 245.561 199.696 235.552 199.696H211.965C208.082 199.696 204.934 202.844 204.934 206.727V228.396C204.934 243.765 212.575 257.376 224.25 265.655V275.766H187.031V208.003C187.031 172.953 215.546 144.438 250.597 144.438C285.647 144.438 314.161 172.953 314.161 208.003V275.766H276.943V275.767Z" fill="white"/>
<path d="M250.594 361.938C248.745 361.938 246.93 362.69 245.623 363.998C244.315 365.305 243.562 367.12 243.562 368.969C243.562 370.818 244.315 372.632 245.623 373.94C246.93 375.248 248.745 376 250.594 376C252.45 376 254.257 375.248 255.565 373.94C256.88 372.632 257.625 370.818 257.625 368.969C257.625 367.12 256.88 365.305 255.565 363.998C254.257 362.69 252.45 361.938 250.594 361.938Z" fill="white"/>
<defs>
<linearGradient id="paint0_linear" x1="166" y1="82.5" x2="349" y2="470" gradientUnits="userSpaceOnUse">
<stop stop-color="#CF82EA" stop-opacity="0.8"/>
<stop offset="1" stop-color="#DCA4EF" stop-opacity="0.5"/>
</linearGradient>
</defs>
</svg>
