<svg width="470" height="516" viewBox="0 0 470 516" fill="none" xmlns="http://www.w3.org/2000/svg">
<circle cx="235" cy="281" r="235" fill="#4FC7C7"/>
<circle cx="235" cy="281" r="235" fill="url(#paint0_linear)"/>
<circle cx="235" cy="281" r="235" fill="white" fill-opacity="0.4"/>
<path d="M379.195 265.22V192.539C379.195 157.189 356.296 127.272 325.038 117.814C323.903 109.662 320.808 101.91 316.038 95.3181C321.017 79.2113 316.989 61.6196 305.245 49.4732C303.248 47.4066 301.061 45.5431 298.724 43.913C288.299 17.5487 263.186 0 235.5 0C207.814 0 182.701 17.5487 172.275 43.913C169.938 45.5431 167.752 47.4066 165.755 49.4725C154.011 61.6196 149.983 79.2106 154.962 95.3174C150.192 101.909 147.097 109.662 145.962 117.813C114.704 127.272 91.8054 157.189 91.8054 192.538V232.651C91.8054 243.831 96.0643 253.994 102.982 261.52C79.0798 266.412 61 288.256 61 314.394V353.949C61 357.843 64.0517 361 67.8164 361H273.266C277.03 361 280.082 357.843 280.082 353.949C280.082 350.055 277.03 346.898 273.266 346.898H211.511V314.394C211.511 292.446 228.774 274.591 249.992 274.591H279.034C281.612 286.357 291.796 295.17 303.939 295.17C316.083 295.17 326.267 286.357 328.845 274.591H357.887C379.105 274.591 396.368 292.446 396.368 314.394V346.898H334.611C330.846 346.898 327.794 350.055 327.794 353.949C327.794 357.843 330.846 361 334.611 361H403.184C406.948 361 410 357.843 410 353.949V314.394C410 292.521 397.333 273.663 379.195 265.22V265.22ZM167.781 101.368C169.555 99.3258 170.022 96.4053 168.978 93.8826C164.087 82.0535 166.605 68.5357 175.394 59.4444C177.169 57.6084 179.16 56.0044 181.31 54.6774C182.648 53.851 183.673 52.5756 184.212 51.0632C192.099 28.9554 212.709 14.1016 235.5 14.1016C258.291 14.1016 278.901 28.9554 286.787 51.0632C287.327 52.5763 288.352 53.8517 289.691 54.6774C291.84 56.0029 293.829 57.607 295.606 59.4437C304.395 68.535 306.913 82.0528 302.022 93.8819C300.978 96.4053 301.445 99.3258 303.219 101.367C306.634 105.298 309.118 109.972 310.533 114.997C308.359 114.801 306.161 114.694 303.939 114.694C292.932 114.694 282.468 117.152 273.036 121.564C277.14 114.646 279.512 106.516 279.512 97.8211V76.2401C279.512 72.3459 276.46 69.1893 272.696 69.1893H249.986C240.373 69.1893 232.553 61.1 232.553 51.1569C232.553 47.2628 229.501 44.1062 225.736 44.1062C221.971 44.1062 218.92 47.2628 218.92 51.1569C218.92 55.7935 219.882 60.1996 221.597 64.184C218.828 67.3279 214.877 69.1893 210.663 69.1893H198.304C194.54 69.1893 191.488 72.3459 191.488 76.2401V97.8211C191.488 106.515 193.859 114.646 197.964 121.564C188.531 117.152 178.068 114.694 167.061 114.694C164.838 114.694 162.64 114.801 160.467 114.997C161.882 109.973 164.366 105.298 167.781 101.368V101.368ZM210.663 83.2916C217.868 83.2916 224.675 80.4635 229.836 75.5865C235.266 80.3845 242.301 83.2916 249.986 83.2916H265.879V97.8218C265.879 115.149 252.251 129.246 235.499 129.246C218.748 129.246 205.12 115.149 205.12 97.8218V83.2916H210.663ZM235.5 143.348C239.452 143.348 243.281 142.797 246.928 141.782C242.331 147.298 238.471 153.486 235.5 160.182C232.529 153.486 228.669 147.299 224.072 141.782C227.719 142.797 231.548 143.348 235.5 143.348ZM105.438 192.539C105.438 157.391 133.082 128.797 167.061 128.797C201.04 128.797 228.684 157.391 228.684 192.539V232.652C228.684 248.002 216.611 260.49 201.771 260.49H192.602V250.351C203.92 242.048 211.328 228.4 211.328 212.988V191.259C211.328 187.365 208.276 184.208 204.511 184.208H181.646C171.941 184.208 164.046 176.041 164.046 166.004C164.046 162.109 160.995 158.953 157.23 158.953C153.465 158.953 150.414 162.109 150.414 166.004C150.414 170.676 151.385 175.115 153.118 179.129C150.321 182.319 146.321 184.209 142.054 184.209H129.611C125.846 184.209 122.794 187.365 122.794 191.259V212.989C122.794 228.401 130.202 242.049 141.519 250.352V260.491H132.351C117.511 260.491 105.439 248.003 105.439 232.653V192.539H105.438ZM136.426 198.309H142.053C149.31 198.309 156.165 195.454 161.357 190.534C166.819 195.375 173.905 198.309 181.646 198.309H197.695V212.987C197.695 230.46 183.952 244.675 167.061 244.675C150.169 244.675 136.426 230.46 136.426 212.987V198.309ZM155.152 257.079C158.944 258.176 162.935 258.776 167.061 258.776C171.187 258.776 175.178 258.177 178.969 257.079V268.75C178.969 275.543 173.627 281.069 167.061 281.069C160.494 281.069 155.152 275.543 155.152 268.75V257.079ZM197.878 314.394V346.898H74.6328V314.394C74.6328 292.446 91.8954 274.591 113.113 274.591H142.156C144.734 286.357 154.918 295.17 167.061 295.17C179.205 295.17 189.388 286.357 191.966 274.591H214.888C204.442 284.455 197.878 298.646 197.878 314.394V314.394ZM273.304 198.309H289.354C297.094 198.309 304.18 195.374 309.643 190.534C314.835 195.454 321.69 198.309 328.946 198.309H334.573V212.987C334.573 230.46 320.831 244.675 303.939 244.675C287.047 244.675 273.304 230.46 273.304 212.987V198.309ZM303.939 281.069C297.373 281.069 292.031 275.543 292.031 268.75V257.079C295.822 258.176 299.813 258.776 303.939 258.776C308.065 258.776 312.056 258.177 315.848 257.079V268.75C315.848 275.543 310.506 281.069 303.939 281.069ZM329.481 260.489V250.35C340.799 242.048 348.207 228.399 348.207 212.986V191.257C348.207 187.363 345.155 184.207 341.39 184.207H328.946C324.679 184.207 320.679 182.317 317.882 179.127C319.614 175.113 320.586 170.674 320.586 166.001C320.586 162.107 317.535 158.951 313.77 158.951C310.005 158.951 306.954 162.107 306.954 166.001C306.954 176.04 299.058 184.206 289.354 184.206H266.489C262.724 184.206 259.672 187.363 259.672 191.257V212.986C259.672 228.398 267.08 242.046 278.398 250.349V260.488H242.316V192.536C242.316 157.389 269.96 128.795 303.939 128.795C337.919 128.795 365.562 157.389 365.562 192.536V260.488H329.481V260.489Z" fill="#CF82EA" fill-opacity="0.8"/>
<path d="M303.937 346.898C302.144 346.898 300.385 347.653 299.118 348.964C297.85 350.276 297.12 352.095 297.12 353.949C297.12 355.804 297.85 357.623 299.118 358.934C300.385 360.246 302.144 361 303.937 361C305.736 361 307.488 360.246 308.756 358.934C310.031 357.623 310.753 355.804 310.753 353.949C310.753 352.095 310.031 350.276 308.756 348.964C307.488 347.653 305.736 346.898 303.937 346.898Z" fill="#CF82EA" fill-opacity="0.8"/>
<defs>
<linearGradient id="paint0_linear" x1="88" y1="128.5" x2="271" y2="516" gradientUnits="userSpaceOnUse">
<stop stop-color="#35BBBB"/>
<stop offset="1" stop-color="#DCA4EF" stop-opacity="0.5"/>
</linearGradient>
</defs>
</svg>
