<?xml version="1.0"?>
<svg xmlns="http://www.w3.org/2000/svg" xmlns:xlink="http://www.w3.org/1999/xlink" xmlns:svgjs="http://svgjs.com/svgjs" version="1.1" width="512" height="512" x="0" y="0" viewBox="0 0 480 480" style="enable-background:new 0 0 512 512" xml:space="preserve" class=""><g>
<g xmlns="http://www.w3.org/2000/svg">
	<g>
		<path d="M440,0h-40h-48H40C17.944,0,0,17.944,0,40v296c0,22.056,17.944,40,40,40h123.688L138.8,432H96c-4.424,0-8,3.576-8,8    c0,22.056,17.944,40,40,40h224c22.056,0,40-17.944,40-40c0-4.424-3.576-8-8-8h-42.8l-24.888-56H440c22.056,0,40-17.944,40-40V40    C480,17.944,462.056,0,440,0z M360,16h32v25.056l-11.56-7.712C379.096,32.448,377.544,32,376,32s-3.096,0.448-4.44,1.344    L360,41.056V16z M374.632,448c-3.304,9.312-12.2,16-22.632,16H128c-10.432,0-19.328-6.688-22.632-16H144h192H374.632z     M323.688,432H156.312l24.88-56H298.8L323.688,432z M464,336c0,13.232-10.768,24-24,24H304H176H40c-13.232,0-24-10.768-24-24v-16    h448V336z M464,104h-20.688l-13.656-13.656C428.16,88.84,426.128,88,424,88h-25.472c-3.312-9.288-12.112-16-22.528-16    c-13.232,0-24,10.768-24,24s10.768,24,24,24c10.416,0,19.216-6.712,22.528-16h22.16l13.656,13.656    C435.84,119.16,437.872,120,440,120h24v32h-65.472c-3.312-9.288-12.112-16-22.528-16c-13.232,0-24,10.768-24,24s10.768,24,24,24    c10.416,0,19.216-6.712,22.528-16H464v32h-24c-2.128,0-4.16,0.84-5.656,2.344L420.688,216h-22.16    c-3.312-9.288-12.112-16-22.528-16c-13.232,0-24,10.768-24,24s10.768,24,24,24c10.416,0,19.216-6.712,22.528-16H424    c2.128,0,4.16-0.84,5.656-2.344L443.312,216H464v88H16v-88h20.688l13.656,13.656C51.84,231.16,53.872,232,56,232h25.472    c3.312,9.288,12.112,16,22.528,16c13.232,0,24-10.768,24-24s-10.768-24-24-24c-10.416,0-19.216,6.712-22.528,16h-22.16    l-13.656-13.656C44.16,200.84,42.128,200,40,200H16v-32h65.472c3.312,9.288,12.112,16,22.528,16c13.232,0,24-10.768,24-24    s-10.768-24-24-24c-10.416,0-19.216,6.712-22.528,16H16v-32h24c2.128,0,4.16-0.84,5.656-2.344L59.312,104h22.16    c3.312,9.288,12.112,16,22.528,16c13.232,0,24-10.768,24-24s-10.768-24-24-24c-10.416,0-19.216,6.712-22.528,16H56    c-2.128,0-4.16,0.84-5.656,2.344L36.688,104H16V40c0-13.232,10.768-24,24-24h304v40c0,2.952,1.624,5.664,4.224,7.056    c2.592,1.392,5.76,1.232,8.208-0.4L376,49.616l19.56,13.04C396.896,63.544,398.448,64,400,64c1.296,0,2.592-0.312,3.776-0.944    C406.376,61.664,408,58.952,408,56V16h32c13.232,0,24,10.768,24,24V104z M384,96c0,4.416-3.584,8-8,8c-4.416,0-8-3.584-8-8    s3.584-8,8-8C380.416,88,384,91.584,384,96z M384,160c0,4.416-3.584,8-8,8c-4.416,0-8-3.584-8-8s3.584-8,8-8    C380.416,152,384,155.584,384,160z M384,224c0,4.416-3.584,8-8,8c-4.416,0-8-3.584-8-8s3.584-8,8-8    C380.416,216,384,219.584,384,224z M96,224c0-4.416,3.584-8,8-8s8,3.584,8,8s-3.584,8-8,8S96,228.416,96,224z M96,160    c0-4.416,3.584-8,8-8s8,3.584,8,8s-3.584,8-8,8S96,164.416,96,160z M96,96c0-4.416,3.584-8,8-8s8,3.584,8,8s-3.584,8-8,8    S96,100.416,96,96z" fill="#347a7a" data-original="#000000" style="" class=""/>
	</g>
</g>
<g xmlns="http://www.w3.org/2000/svg">
	<g>
		<path d="M334.896,235.016l-0.008-0.008L280,149.648V56c0-4.424-3.576-8-8-8h-64c-4.424,0-8,3.576-8,8v93.648l-54.888,85.376    c-4.824,7.504-5.144,16.656-0.864,24.488c4.264,7.816,12.144,12.488,21.056,12.488h149.392c8.912,0,16.792-4.672,21.064-12.496    C340.032,251.672,339.712,242.52,334.896,235.016z M321.72,251.832c-0.688,1.256-2.744,4.168-7.024,4.168H165.304    c-4.28,0-6.336-2.912-7.024-4.168c-0.68-1.256-2.024-4.56,0.288-8.16l56.16-87.344c0.832-1.288,1.272-2.8,1.272-4.328v-16h16v-16    h-16v-16h16V88h-16V64h48v88c0,1.528,0.44,3.04,1.272,4.328l56.152,87.336C323.744,247.272,322.4,250.576,321.72,251.832z" fill="#347a7a" data-original="#000000" style="" class=""/>
	</g>
</g>
<g xmlns="http://www.w3.org/2000/svg">
	<g>
		<path d="M272,200v-16h-48c-2.128,0-4.16,0.84-5.656,2.344l-16,16l11.312,11.312L224,203.312V240h16v-40h8v24    c0,2.128,0.84,4.16,2.344,5.656l8,8l11.312-11.312L264,220.688V200H272z" fill="#347a7a" data-original="#000000" style="" class=""/>
	</g>
</g>
<g xmlns="http://www.w3.org/2000/svg">
</g>
<g xmlns="http://www.w3.org/2000/svg">
</g>
<g xmlns="http://www.w3.org/2000/svg">
</g>
<g xmlns="http://www.w3.org/2000/svg">
</g>
<g xmlns="http://www.w3.org/2000/svg">
</g>
<g xmlns="http://www.w3.org/2000/svg">
</g>
<g xmlns="http://www.w3.org/2000/svg">
</g>
<g xmlns="http://www.w3.org/2000/svg">
</g>
<g xmlns="http://www.w3.org/2000/svg">
</g>
<g xmlns="http://www.w3.org/2000/svg">
</g>
<g xmlns="http://www.w3.org/2000/svg">
</g>
<g xmlns="http://www.w3.org/2000/svg">
</g>
<g xmlns="http://www.w3.org/2000/svg">
</g>
<g xmlns="http://www.w3.org/2000/svg">
</g>
<g xmlns="http://www.w3.org/2000/svg">
</g>
</g></svg>
