<?xml version="1.0"?>
<svg xmlns="http://www.w3.org/2000/svg" xmlns:xlink="http://www.w3.org/1999/xlink" xmlns:svgjs="http://svgjs.com/svgjs" version="1.1" width="512" height="512" x="0" y="0" viewBox="0 0 480.031 480.031" style="enable-background:new 0 0 512 512" xml:space="preserve"><g>
<g xmlns="http://www.w3.org/2000/svg">
	<g>
		<path d="M281.631,428.824l-89.6-119.472V160.016h16v-16h-24h-80h-24v16h16v149.336l-89.6,119.472    c-7.32,9.76-8.48,22.592-3.024,33.504c5.456,10.904,16.424,17.688,28.624,17.688h224c12.2,0,23.168-6.784,28.624-17.688    C290.111,451.416,288.951,438.576,281.631,428.824z M110.431,316.816c1.04-1.384,1.6-3.064,1.6-4.8v-24h24v-16h-24v-24h24v-16h-24    v-24h24v-16h-24v-32h64v152c0,1.736,0.56,3.416,1.6,4.8l47.68,63.576c-2.816,1.88-5.056,4.064-6.96,5.96    c-3.92,3.928-5.848,5.664-10.36,5.664c-4.512,0-6.44-1.736-10.368-5.664c-4.368-4.36-10.352-10.336-21.672-10.336    c-11.312,0-17.288,5.976-21.656,10.344c-3.92,3.92-5.84,5.656-10.336,5.656c-4.496,0-6.416-1.736-10.336-5.656    c-4.352-4.368-10.328-10.344-21.632-10.344s-17.288,5.976-21.648,10.344c-3.92,3.92-5.84,5.656-10.328,5.656    c-4.496,0-6.416-1.736-10.336-5.656c-1.896-1.896-4.136-4.08-6.944-5.96L110.431,316.816z M270.343,455.176    c-2.768,5.536-8.12,8.84-14.312,8.84h-224c-6.192,0-11.544-3.304-14.312-8.84c-2.768-5.544-2.2-11.808,1.512-16.76l33.88-45.168    c1.64,0.92,3.176,2.344,5.256,4.432c4.36,4.36,10.336,10.336,21.648,10.336s17.28-5.976,21.648-10.344    c3.92-3.92,5.84-5.656,10.328-5.656c4.488,0,6.408,1.736,10.328,5.656c4.36,4.368,10.336,10.344,21.648,10.344    s17.288-5.976,21.656-10.344c3.92-3.92,5.84-5.656,10.336-5.656c4.504,0,6.44,1.736,10.368,5.664    c4.36,4.36,10.344,10.336,21.664,10.336s17.304-5.976,21.672-10.336c2.096-2.096,3.632-3.52,5.288-4.44l33.88,45.176    C272.543,443.368,273.111,449.632,270.343,455.176z" fill="#347a7a" data-original="#000000" style=""/>
	</g>
</g>
<g xmlns="http://www.w3.org/2000/svg">
	<g>
		<path d="M472.031,264.016h-184c-3.032,0-5.8,1.712-7.16,4.424c-1.36,2.712-1.056,5.952,0.76,8.376l22.4,29.864v133.336    c0,22.056,17.944,40,40,40h96c22.056,0,40-17.944,40-40v-168C480.031,267.592,476.447,264.016,472.031,264.016z M464.031,440.016    c0,13.232-10.768,24-24,24h-96c-13.232,0-24-10.768-24-24V337.584c2.432,1.096,4.496,2.688,6.984,4.672    c5.424,4.352,12.184,9.76,24.984,9.76c12.808,0,19.56-5.408,24.992-9.752c4.696-3.76,7.8-6.248,15-6.248    s10.304,2.488,15.008,6.248c5.432,4.344,12.2,9.752,25.008,9.752c12.808,0,19.576-5.408,25.008-9.752    c2.496-1.992,4.576-3.592,7.016-4.688V440.016z M464.031,320.84c-7.864,1.664-12.84,5.6-17.008,8.928    c-4.704,3.76-7.816,6.248-15.016,6.248s-10.312-2.488-15.016-6.248c-5.432-4.344-12.192-9.752-25-9.752    c-12.808,0-19.568,5.408-25,9.752c-4.704,3.76-7.808,6.248-15,6.248c-7.184,0-10.288-2.488-14.984-6.24    c-4.16-3.336-9.128-7.272-16.984-8.936v-16.824c0-1.736-0.56-3.416-1.6-4.8l-14.392-19.2h160V320.84z" fill="#347a7a" data-original="#000000" style=""/>
	</g>
</g>
<g xmlns="http://www.w3.org/2000/svg">
	<g>
		<path d="M456.031,16.016h-41.472c-3.312-9.288-12.112-16-22.528-16h-16c-4.416,0-8,3.576-8,8v8h-176c-4.416,0-8,3.576-8,8v8h-40    v0.112c-2.176,0-4.352,0.816-5.864,2.448c-1.072,1.16-26.136,28.496-26.136,53.44c0,29.52,17.24,40,32,40s32-10.48,32-40    c0-14.368-8.312-29.504-15.568-40h23.568v8c0,4.424,3.584,8,8,8h176v8c0,4.424,3.584,8,8,8h16c10.416,0,19.216-6.712,22.528-16    h41.472c13.232,0,24-10.768,24-24S469.263,16.016,456.031,16.016z M144.031,112.016c-13.92,0-16-15.04-16-24    c0-11.68,8.984-26.208,16.008-35.472c7.024,9.248,15.992,23.744,15.992,35.472C160.031,96.976,157.951,112.016,144.031,112.016z     M368.031,48.016h-168v-16h168V48.016z M400.031,56.016c0,4.416-3.592,8-8,8h-8v-8v-32v-8h8c4.408,0,8,3.584,8,8V56.016z     M456.031,48.016h-40v-16h40c4.408,0,8,3.584,8,8S460.439,48.016,456.031,48.016z" fill="#347a7a" data-original="#000000" style=""/>
	</g>
</g>
<g xmlns="http://www.w3.org/2000/svg">
	<g>
		<path d="M440.031,200.016c-13.232,0-24,10.768-24,24s10.768,24,24,24s24-10.768,24-24S453.263,200.016,440.031,200.016z     M440.031,232.016c-4.408,0-8-3.584-8-8s3.592-8,8-8c4.408,0,8,3.584,8,8S444.439,232.016,440.031,232.016z" fill="#347a7a" data-original="#000000" style=""/>
	</g>
</g>
<g xmlns="http://www.w3.org/2000/svg">
	<g>
		<path d="M312.031,80.016c-13.232,0-24,10.768-24,24s10.768,24,24,24s24-10.768,24-24S325.263,80.016,312.031,80.016z     M312.031,112.016c-4.408,0-8-3.584-8-8s3.592-8,8-8c4.408,0,8,3.584,8,8S316.439,112.016,312.031,112.016z" fill="#347a7a" data-original="#000000" style=""/>
	</g>
</g>
<g xmlns="http://www.w3.org/2000/svg">
	<g>
		<path d="M336.031,152.016c-22.056,0-40,17.944-40,40c0,22.056,17.944,40,40,40c22.056,0,40-17.944,40-40    C376.031,169.96,358.087,152.016,336.031,152.016z M336.031,216.016c-13.232,0-24-10.768-24-24s10.768-24,24-24s24,10.768,24,24    S349.263,216.016,336.031,216.016z" fill="#347a7a" data-original="#000000" style=""/>
	</g>
</g>
<g xmlns="http://www.w3.org/2000/svg">
	<g>
		<path d="M432.031,96.016c-17.648,0-32,14.352-32,32s14.352,32,32,32s32-14.352,32-32S449.679,96.016,432.031,96.016z     M432.031,144.016c-8.824,0-16-7.176-16-16c0-8.824,7.176-16,16-16c8.824,0,16,7.176,16,16    C448.031,136.84,440.855,144.016,432.031,144.016z" fill="#347a7a" data-original="#000000" style=""/>
	</g>
</g>
<g xmlns="http://www.w3.org/2000/svg">
	<g>
		<rect x="336.031" y="368.016" width="32" height="16" fill="#347a7a" data-original="#000000" style=""/>
	</g>
</g>
<g xmlns="http://www.w3.org/2000/svg">
	<g>
		<rect x="336.031" y="400.016" width="32" height="16" fill="#347a7a" data-original="#000000" style=""/>
	</g>
</g>
<g xmlns="http://www.w3.org/2000/svg">
	<g>
		<rect x="336.031" y="432.016" width="32" height="16" fill="#347a7a" data-original="#000000" style=""/>
	</g>
</g>
<g xmlns="http://www.w3.org/2000/svg">
	<g>
		<rect x="432.031" y="432.016" width="16" height="16" fill="#347a7a" data-original="#000000" style=""/>
	</g>
</g>
<g xmlns="http://www.w3.org/2000/svg">
	<g>
		<rect x="432.031" y="400.016" width="16" height="16" fill="#347a7a" data-original="#000000" style=""/>
	</g>
</g>
<g xmlns="http://www.w3.org/2000/svg">
	<g>
		<rect x="400.031" y="432.016" width="16" height="16" fill="#347a7a" data-original="#000000" style=""/>
	</g>
</g>
<g xmlns="http://www.w3.org/2000/svg">
</g>
<g xmlns="http://www.w3.org/2000/svg">
</g>
<g xmlns="http://www.w3.org/2000/svg">
</g>
<g xmlns="http://www.w3.org/2000/svg">
</g>
<g xmlns="http://www.w3.org/2000/svg">
</g>
<g xmlns="http://www.w3.org/2000/svg">
</g>
<g xmlns="http://www.w3.org/2000/svg">
</g>
<g xmlns="http://www.w3.org/2000/svg">
</g>
<g xmlns="http://www.w3.org/2000/svg">
</g>
<g xmlns="http://www.w3.org/2000/svg">
</g>
<g xmlns="http://www.w3.org/2000/svg">
</g>
<g xmlns="http://www.w3.org/2000/svg">
</g>
<g xmlns="http://www.w3.org/2000/svg">
</g>
<g xmlns="http://www.w3.org/2000/svg">
</g>
<g xmlns="http://www.w3.org/2000/svg">
</g>
</g></svg>
