<?xml version="1.0"?>
<svg xmlns="http://www.w3.org/2000/svg" xmlns:xlink="http://www.w3.org/1999/xlink" xmlns:svgjs="http://svgjs.com/svgjs" version="1.1" width="512" height="512" x="0" y="0" viewBox="0 0 486.378 486.378" style="enable-background:new 0 0 512 512" xml:space="preserve" class=""><g>
<g xmlns="http://www.w3.org/2000/svg">
	<g>
		<path d="M428.032,64.361l-24-24L392.72,51.673l10.344,10.344H246.376c-127.92,0-232,104.072-232,232h16    c0-119.104,96.896-216,216-216h156.688L392.72,88.361l11.312,11.312l24-24C431.16,72.545,431.16,67.489,428.032,64.361z" fill="#347a7a" data-original="#000000" style="" class=""/>
	</g>
</g>
<g xmlns="http://www.w3.org/2000/svg">
	<g>
		<path d="M484.032,24.361l-24-24L448.72,11.673l10.344,10.344H246.376c-105.04,0-201.744,61.472-246.376,156.6l14.488,6.8    c42.008-89.544,133.032-147.4,231.888-147.4h212.688L448.72,48.361l11.312,11.312l24-24    C487.16,32.545,487.16,27.489,484.032,24.361z" fill="#347a7a" data-original="#000000" style="" class=""/>
	</g>
</g>
<g xmlns="http://www.w3.org/2000/svg">
	<g>
		<path d="M404.032,179.673l45.656-45.656h36.688v-16h-40c-2.128,0-4.16,0.84-5.656,2.344l-45.656,45.656h-67.04    c-1.688-1.08-3.4-2.104-5.128-3.12c-0.4-0.232-0.784-0.496-1.192-0.72c-4.384-2.52-8.896-4.824-13.544-6.904    c-0.08-0.04-0.16-0.08-0.24-0.12c-14.136-6.288-29.36-10.552-45.36-12.248c-0.088-0.008-0.168-0.032-0.256-0.04    c-5.24-0.544-10.544-0.848-15.928-0.848c-5.384,0-10.688,0.304-15.928,0.848c-0.088,0.008-0.168,0.032-0.256,0.04    c-16,1.704-31.224,5.96-45.36,12.248c-0.08,0.04-0.16,0.08-0.24,0.12c-4.648,2.08-9.16,4.384-13.544,6.904    c-0.4,0.232-0.792,0.488-1.192,0.72c-4.04,2.368-7.96,4.896-11.744,7.608c-0.648,0.464-1.264,0.952-1.904,1.424    c-3.512,2.6-6.92,5.336-10.192,8.224c-0.736,0.648-1.448,1.312-2.168,1.976c-3.152,2.888-6.176,5.904-9.072,9.048    c-0.36,0.392-0.768,0.728-1.128,1.128c-0.088,0.096-0.112,0.232-0.2,0.336c-24.208,26.928-39.072,62.408-39.072,101.376    c0,38.968,14.864,74.448,39.064,101.376c0.08,0.104,0.112,0.24,0.2,0.336c0.36,0.4,0.768,0.736,1.128,1.128    c2.896,3.144,5.92,6.152,9.072,9.048c0.72,0.664,1.44,1.328,2.168,1.976c3.272,2.888,6.68,5.624,10.192,8.224    c0.64,0.472,1.256,0.96,1.904,1.424c3.792,2.72,7.712,5.248,11.744,7.608c0.4,0.232,0.784,0.496,1.192,0.72    c4.384,2.52,8.896,4.824,13.544,6.904c0.08,0.04,0.16,0.08,0.24,0.12c14.136,6.288,29.36,10.552,45.36,12.248    c0.088,0.008,0.168,0.032,0.256,0.04c5.248,0.544,10.552,0.848,15.936,0.848c5.384,0,10.688-0.304,15.928-0.848    c0.088-0.008,0.168-0.032,0.256-0.04c16-1.704,31.224-5.96,45.36-12.248c0.08-0.04,0.16-0.08,0.24-0.12    c4.648-2.08,9.16-4.384,13.544-6.904c0.4-0.232,0.792-0.488,1.192-0.72c1.728-1.016,3.448-2.04,5.128-3.12h67.04l45.656,45.656    c1.496,1.504,3.528,2.344,5.656,2.344h40v-16h-36.688l-45.656-45.656c-1.496-1.504-3.528-2.344-5.656-2.344h-49.584    c0.04-0.04,0.072-0.08,0.112-0.112c3.152-2.888,6.176-5.904,9.072-9.048c0.36-0.392,0.768-0.728,1.128-1.128    c0.088-0.096,0.112-0.232,0.2-0.336c3.832-4.256,7.44-8.704,10.768-13.376h40.984l29.656,29.656    c1.504,1.504,3.536,2.344,5.664,2.344h40v-16h-36.688l-29.656-29.656c-1.496-1.504-3.528-2.344-5.656-2.344h-34.184    c4.12-7.624,7.512-15.672,10.296-24h36.576l13.656,13.656c1.496,1.504,3.528,2.344,5.656,2.344h40v-16h-36.688l-13.656-13.656    c-1.496-1.504-3.528-2.344-5.656-2.344H394.92c1.68-7.792,2.624-15.824,3.048-24h88.408v-16h-88.408    c-0.432-8.176-1.376-16.208-3.048-24h35.456c2.128,0,4.16-0.84,5.656-2.344l13.656-13.656h36.688v-16h-40    c-2.128,0-4.16,0.84-5.656,2.344l-13.656,13.656h-36.576c-2.784-8.328-6.176-16.376-10.296-24h34.184    c2.128,0,4.16-0.84,5.656-2.344l29.656-29.656h36.688v-16h-40c-2.128,0-4.16,0.84-5.656,2.344l-29.656,29.656H370.08    c-3.336-4.672-6.944-9.12-10.768-13.376c-0.08-0.104-0.112-0.24-0.2-0.336c-0.36-0.4-0.768-0.736-1.128-1.128    c-2.896-3.144-5.92-6.152-9.072-9.048c-0.04-0.04-0.072-0.08-0.112-0.112h49.576C400.504,182.017,402.536,181.177,404.032,179.673    z M270.88,160.345c0.584,0.104,1.184,0.16,1.76,0.272c25.68,5.112,49.584,17.632,68.576,36.16    c-12.504,8.704-28.616,15.352-46.688,19.664c-9.856-24.768-22.208-44.696-31.032-57.192    C265.968,159.569,268.44,159.889,270.88,160.345z M198.648,286.017c0.896-18.184,4.728-35.48,10-51.216    c12.128,2.032,24.768,3.216,37.728,3.216s25.6-1.184,37.728-3.216c5.272,15.736,9.104,33.032,10,51.216H198.648z M294.096,302.017    c-0.896,18.184-4.728,35.48-10,51.216c-12.12-2.032-24.76-3.216-37.72-3.216s-25.6,1.184-37.728,3.216    c-5.272-15.736-9.104-33.032-10-51.216H294.096z M246.376,162.977c7.704,10.376,21.272,30.616,32.032,56.584    c-10.304,1.552-21.024,2.456-32.032,2.456s-21.728-0.904-32.032-2.456C225.104,193.593,238.68,173.353,246.376,162.977z     M220.104,160.617c0.584-0.112,1.184-0.168,1.76-0.272c2.448-0.456,4.912-0.776,7.384-1.096    c-8.824,12.496-21.176,32.416-31.032,57.192c-18.072-4.312-34.184-10.96-46.688-19.664    C170.52,178.249,194.424,165.729,220.104,160.617z M140.76,208.513c13.984,10.128,31.864,17.96,52.048,22.992    c-5.408,16.688-9.232,35.056-10.096,54.512h-71.928C112.496,256.761,123.376,229.945,140.76,208.513z M140.76,379.521    c-17.384-21.432-28.264-48.248-29.976-77.504h71.928c0.864,19.456,4.688,37.824,10.096,54.512    C172.632,361.561,154.752,369.393,140.76,379.521z M221.872,427.689c-0.584-0.104-1.184-0.16-1.76-0.272    c-25.68-5.112-49.584-17.632-68.576-36.16c12.504-8.704,28.616-15.352,46.688-19.664c9.856,24.768,22.208,44.696,31.032,57.192    C226.784,428.465,224.312,428.145,221.872,427.689z M246.376,425.057c-7.704-10.376-21.272-30.616-32.032-56.584    c10.304-1.552,21.024-2.456,32.032-2.456s21.728,0.904,32.032,2.456C267.648,394.441,254.072,414.681,246.376,425.057z     M272.648,427.417c-0.584,0.112-1.184,0.168-1.76,0.272c-2.448,0.456-4.912,0.776-7.384,1.096    c8.824-12.496,21.176-32.416,31.032-57.192c18.072,4.312,34.184,10.96,46.688,19.664    C322.232,409.785,298.328,422.305,272.648,427.417z M351.992,379.521c-13.984-10.128-31.864-17.96-52.048-22.992    c5.408-16.688,9.232-35.056,10.096-54.512h71.928C380.256,331.273,369.376,358.089,351.992,379.521z M351.992,208.513    c17.384,21.432,28.264,48.248,29.976,77.504H310.04c-0.864-19.456-4.688-37.824-10.096-54.512    C320.12,226.473,338,218.641,351.992,208.513z" fill="#347a7a" data-original="#000000" style="" class=""/>
	</g>
</g>
<g xmlns="http://www.w3.org/2000/svg">
	<g>
		<path d="M372.032,104.361l-24-24L336.72,91.673l10.344,10.344H246.376c-105.864,0-192,86.136-192,192s86.136,192,192,192h40v-16    h-40c-97.048,0-176-78.952-176-176s78.952-176,176-176h100.688l-10.344,10.344l11.312,11.312l24-24    C375.16,112.545,375.16,107.489,372.032,104.361z" fill="#347a7a" data-original="#000000" style="" class=""/>
	</g>
</g>
<g xmlns="http://www.w3.org/2000/svg">
	<g>
		<rect x="302.376" y="470.017" width="16" height="16" fill="#347a7a" data-original="#000000" style="" class=""/>
	</g>
</g>
<g xmlns="http://www.w3.org/2000/svg">
	<g>
		<rect x="334.376" y="470.017" width="16" height="16" fill="#347a7a" data-original="#000000" style="" class=""/>
	</g>
</g>
<g xmlns="http://www.w3.org/2000/svg">
	<g>
		<rect x="366.376" y="470.017" width="16" height="16" fill="#347a7a" data-original="#000000" style="" class=""/>
	</g>
</g>
<g xmlns="http://www.w3.org/2000/svg">
	<g>
		<rect x="14.376" y="310.017" width="16" height="16" fill="#347a7a" data-original="#000000" style="" class=""/>
	</g>
</g>
<g xmlns="http://www.w3.org/2000/svg">
</g>
<g xmlns="http://www.w3.org/2000/svg">
</g>
<g xmlns="http://www.w3.org/2000/svg">
</g>
<g xmlns="http://www.w3.org/2000/svg">
</g>
<g xmlns="http://www.w3.org/2000/svg">
</g>
<g xmlns="http://www.w3.org/2000/svg">
</g>
<g xmlns="http://www.w3.org/2000/svg">
</g>
<g xmlns="http://www.w3.org/2000/svg">
</g>
<g xmlns="http://www.w3.org/2000/svg">
</g>
<g xmlns="http://www.w3.org/2000/svg">
</g>
<g xmlns="http://www.w3.org/2000/svg">
</g>
<g xmlns="http://www.w3.org/2000/svg">
</g>
<g xmlns="http://www.w3.org/2000/svg">
</g>
<g xmlns="http://www.w3.org/2000/svg">
</g>
<g xmlns="http://www.w3.org/2000/svg">
</g>
</g></svg>
