<svg width="803" height="793" viewBox="0 0 803 793" fill="none" xmlns="http://www.w3.org/2000/svg">
<path d="M198.103 0H802.103L802.103 793C755.103 780.5 773.603 779 719.603 762C665.603 745 598.603 747 475.103 772.5C351.603 798 280.103 795 176.603 777.5C73.1025 760 44.1025 699.5 44.1025 659.5C44.1025 619.5 52.6026 614.5 24.6026 559.5C-3.39738 504.5 -3.39738 482.5 4.60262 419C12.6026 355.5 80.6026 248 140.103 196C187.703 154.4 198.603 48 198.103 0Z" fill="#B26BCB"/>
<path d="M198.103 0H802.103L802.103 793C755.103 780.5 773.603 779 719.603 762C665.603 745 598.603 747 475.103 772.5C351.603 798 280.103 795 176.603 777.5C73.1025 760 44.1025 699.5 44.1025 659.5C44.1025 619.5 52.6026 614.5 24.6026 559.5C-3.39738 504.5 -3.39738 482.5 4.60262 419C12.6026 355.5 80.6026 248 140.103 196C187.703 154.4 198.603 48 198.103 0Z" fill="url(#paint0_linear)"/>
<path d="M198.103 0H802.103L802.103 793C755.103 780.5 773.603 779 719.603 762C665.603 745 598.603 747 475.103 772.5C351.603 798 280.103 795 176.603 777.5C73.1025 760 44.1025 699.5 44.1025 659.5C44.1025 619.5 52.6026 614.5 24.6026 559.5C-3.39738 504.5 -3.39738 482.5 4.60262 419C12.6026 355.5 80.6026 248 140.103 196C187.703 154.4 198.603 48 198.103 0Z" fill="url(#paint1_linear)"/>
<path d="M198.103 0H802.103L802.103 793C755.103 780.5 773.603 779 719.603 762C665.603 745 598.603 747 475.103 772.5C351.603 798 280.103 795 176.603 777.5C73.1025 760 44.1025 699.5 44.1025 659.5C44.1025 619.5 52.6026 614.5 24.6026 559.5C-3.39738 504.5 -3.39738 482.5 4.60262 419C12.6026 355.5 80.6026 248 140.103 196C187.703 154.4 198.603 48 198.103 0Z" fill="url(#paint2_linear)"/>
<defs>
<linearGradient id="paint0_linear" x1="340.5" y1="443.5" x2="458.5" y2="35.5" gradientUnits="userSpaceOnUse">
<stop stop-color="#B26BCB"/>
<stop offset="1" stop-color="white" stop-opacity="0"/>
</linearGradient>
<linearGradient id="paint1_linear" x1="858.5" y1="458" x2="401.051" y2="793" gradientUnits="userSpaceOnUse">
<stop stop-color="#89F3F3"/>
<stop offset="1" stop-color="white" stop-opacity="0"/>
</linearGradient>
<linearGradient id="paint2_linear" x1="834" y1="181.5" x2="401.051" y2="793" gradientUnits="userSpaceOnUse">
<stop stop-color="#4FC7C7"/>
<stop offset="1" stop-color="white" stop-opacity="0"/>
</linearGradient>
</defs>
</svg>
